inDegrees=no
num_controls=7
num_derivatives=13
num_iterations=90
num_multipliers=7
num_parameters=0
num_slacks=7
num_states=26
objective=0.333719
objective_accelerations=0.037599
objective_balance=0.001322
objective_effort=0.027544
objective_height=0.265781
objective_ligament=0.001473
solver_duration=997.692034
status=Solve_Succeeded
success=true
DataType=double
version=3
OpenSimVersion=4.5
endheader
time	/jointset/ground_pelvis/pelvis_tilt/value	/jointset/ground_pelvis/pelvis_tx/value	/jointset/ground_pelvis/pelvis_ty/value	/jointset/hip_r/hip_flexion_r/value	/jointset/hip_r/hip_adduction_r/value	/jointset/hip_r/hip_rotation_r/value	/jointset/back/lumbar_extension/value	/jointset/patellofemoral_r/patellar_flexion_r/value	/jointset/knee_r/knee_flexion_r/value	/jointset/knee_r/knee_adduction_r/value	/jointset/knee_r/knee_rotation_r/value	/jointset/ankle_r/ankle_angle_r/value	/jointset/subtalar_r/subtalar_angle_r/value	/jointset/ground_pelvis/pelvis_tilt/speed	/jointset/ground_pelvis/pelvis_tx/speed	/jointset/ground_pelvis/pelvis_ty/speed	/jointset/hip_r/hip_flexion_r/speed	/jointset/hip_r/hip_adduction_r/speed	/jointset/hip_r/hip_rotation_r/speed	/jointset/back/lumbar_extension/speed	/jointset/patellofemoral_r/patellar_flexion_r/speed	/jointset/knee_r/knee_flexion_r/speed	/jointset/knee_r/knee_adduction_r/speed	/jointset/knee_r/knee_rotation_r/speed	/jointset/ankle_r/ankle_angle_r/speed	/jointset/subtalar_r/subtalar_angle_r/speed	/forceset/tau_hip_flexion_r	/forceset/tau_hip_adduction_r	/forceset/tau_hip_rotation_r	/forceset/tau_knee_flexion_r	/forceset/tau_ankle_angle_r	/forceset/tau_subtalar_angle_r	/forceset/tau_lumbar_extension	lambda_cid13_p0	lambda_cid14_p0	lambda_cid14_p1	lambda_cid14_p2	lambda_cid14_p3	lambda_cid14_p4	lambda_cid14_p5	/jointset/ground_pelvis/pelvis_tilt/accel	/jointset/ground_pelvis/pelvis_tx/accel	/jointset/ground_pelvis/pelvis_ty/accel	/jointset/hip_r/hip_flexion_r/accel	/jointset/hip_r/hip_adduction_r/accel	/jointset/hip_r/hip_rotation_r/accel	/jointset/back/lumbar_extension/accel	/jointset/patellofemoral_r/patellar_flexion_r/accel	/jointset/knee_r/knee_flexion_r/accel	/jointset/knee_r/knee_adduction_r/accel	/jointset/knee_r/knee_rotation_r/accel	/jointset/ankle_r/ankle_angle_r/accel	/jointset/subtalar_r/subtalar_angle_r/accel	gamma_cid13_p0	gamma_cid14_p0	gamma_cid14_p1	gamma_cid14_p2	gamma_cid14_p3	gamma_cid14_p4	gamma_cid14_p5
0.5	-0.1751933179173037	0.02792174960042035	0.8024021950001181	0.9318688278175925	-0.2240978413735517	-0.1218129989992618	-0.6485556793193067	0.9610055822487927	0.9610055822488269	-0.04747948767967836	0.1745165732609073	0.29621643580025	0.137378272059472	-0.4500317054182763	-0.2074025232226791	-0.5172098589482531	1.979279931537666	-0.00967091785041798	0.1763749487148988	-0.735597463665373	1.946893767944697	1.946893767944768	-0.467782972849181	0.0001587394521857842	0.5303505909790898	0.1944554606445928	-0.2164538521544315	0.02649400685139809	0.01502394690109177	-0.2671739998010728	-0.01707501964027724	-0.005311405351596922	0.2503364812616473	-8.114012212507047	-48.17278534275952	-10.00764399435938	1.179243813638979	-2.964997137648639	-639.4224127668662	49.88695654862411	0.3737831425683377	0.6002677040229732	-0.4393303781038259	-1.315222522598592	-0.2481832652603179	-0.6453598376226592	1.832912246259473	-1.372086763021874	-1.372086763021876	0.4434066865020907	-0.01527086065316048	-0.5980821642723946	-0.4117413494539707	-1.52041417141359e-07	-1.55240052070573e-07	6.052085491804385e-07	-1.601155630511039e-06	3.348757687637323e-08	-2.860130751981288e-07	4.335923627783942e-07
0.51	-0.1796739009679346	0.0258779280949891	0.7972093473342565	0.9515926686434002	-0.2242077251327831	-0.1200803829047025	-0.6558195408632819	0.9804031860384483	0.9804031860384479	-0.0521322808445293	0.1745181987396452	0.3014888901427767	0.139300405631767	-0.4460103702516823	-0.2013451395725373	-0.5212427212838203	1.965222509541862	-0.01229319724472033	0.1701516334742901	-0.7170906059038195	1.932364167118899	1.932364167118962	-0.4627487697976862	0.0001723695351964986	0.5240609405398176	0.1899395295629544	-0.2235688972105045	0.02783851070484748	0.01500688790928813	-0.2715377294471182	-0.01853248601848691	-0.004898261763007925	0.2567485519265768	-7.177923643137333	-48.97197568517647	-10.15358357966608	1.414322667199867	-2.865344355317058	-644.6440331898139	49.90716681924211	0.4274732084294346	0.6109771979265824	-0.3677776885267378	-1.490881988591895	-0.2675562512270775	-0.6105760836445124	1.872208425015524	-1.532789535079765	-1.53278953508089	0.5375378958083482	0.0102773676858361	-0.6563325304840978	-0.4763822082456479	-1.577320707167078e-07	-1.756081840949099e-07	4.433062657932381e-07	-1.79939538302678e-06	6.00371181971144e-08	-2.836481944835582e-07	2.846613444740746e-07
0.52	-0.184112037765955	0.02389518112654258	0.7919796683395904	0.9711679592591462	-0.2243434928808998	-0.1184099517058212	-0.662895806652859	0.9996476152613016	0.9996476152612659	-0.05673390982259797	0.1745200800041961	0.3066960627715644	0.1411764072491003	-0.4415424548961059	-0.1951876158257328	-0.5245761247091331	1.949569889525233	-0.01484771562750008	0.1639379695790996	-0.6980783127857746	1.91625885458426	1.916258854584317	-0.4575501354927852	0.0002098966145131784	0.5172942482313667	0.1852290696522415	-0.2306839422665728	0.02918301455830246	0.01498982891748371	-0.2759014590931639	-0.01998995239669551	-0.004485118174409683	0.2631606225915103	-6.302142868958203	-49.76777054779679	-10.29403647790757	1.642938252961325	-2.800718724518657	-649.8235342974025	49.98832716605698	0.4630991803648549	0.6202957233554907	-0.2994385960528954	-1.634262126763708	-0.2346310629557944	-0.6434295685390301	1.933999317557795	-1.687229104789949	-1.687229104789941	0.4762929371833227	-0.01049146139198051	-0.6934905381081272	-0.4506471152688587	-1.669150345208234e-07	-2.086240776359947e-07	1.880419598518148e-07	-2.125417616384623e-06	1.029566331702794e-07	-2.862885042496954e-07	6.448465380604587e-08
0.53	-0.1885033245975005	0.02197444606861091	0.7867201775129775	0.990578903240914	-0.2245046296008952	-0.116799969288194	-0.6697795154104688	1.018723462824557	1.018723462824614	-0.06128112659612513	0.1745218796143387	0.3118332151015877	0.1430040124302206	-0.4366419704146183	-0.1889488049515969	-0.5272016264187988	1.932359999414558	-0.01736955954097065	0.1581103278524761	-0.6785927985656728	1.898665189937813	1.89866518993782	-0.4518179265297473	0.0001428851867685168	0.5100625053851354	0.1802550252901233	-0.2377057523530403	0.03034014854466454	0.015051213674237	-0.2804305596201369	-0.02147583205821957	-0.004147479698173332	0.2694566422908722	-5.487194413330718	-50.59011512867445	-10.47478426711238	1.88123884414339	-2.651134363990169	-655.1165699166617	50.04903544495613	0.5144390658948536	0.6272874907771075	-0.226101364296443	-1.803220665506984	-0.2597756651910231	-0.5449641135382473	1.966423499850213	-1.832221016195925	-1.832221016203231	0.6329985451180307	-0.006328005698778838	-0.7490845834572045	-0.5265881070108513	-1.475377993356978e-07	-1.65987159410161e-07	3.404202249701459e-07	-1.740495342005618e-06	5.95181363762384e-08	-2.46500127567597e-07	1.786562318569855e-07
0.54	-0.1928434233874607	0.02011642186368746	0.7814380325880932	1.009809974679118	-0.2246907476819542	-0.1152467698155965	-0.6764662498207548	1.037616016567021	1.037616016567174	-0.06576875854617273	0.1745227047057601	0.3168958363180333	0.1447807161656542	-0.4313048465789622	-0.1826454452240896	-0.5291069443633889	1.913595380812376	-0.01984398784037502	0.1525813805732824	-0.6586834433210156	1.879600090426416	1.879600090426375	-0.4456331707965493	1.499286970105832e-05	0.5023880255158407	0.1750487805149029	-0.2447275624395041	0.03149728253102688	0.01511259843102417	-0.2849596601471062	-0.0229617117197441	-0.003809841221938077	0.2757526619902374	-4.733047796642543	-51.40917310490098	-10.64847870631766	2.111015073583409	-2.541389879278565	-660.3734151023547	50.1861551841382	0.5504270511986169	0.6332054940297351	-0.1554018430377457	-1.945207825065236	-0.2251479401425486	-0.5836906790530831	2.018767522468895	-1.981516077779715	-1.98151607777972	0.566802291215313	-0.02266763925654876	-0.7820379427208403	-0.4970871978893009	-9.656204611992218e-08	-3.964925795284183e-08	9.438072921120406e-07	-5.689961654496656e-07	-7.946539471343587e-08	-1.597693743895777e-07	6.627450433842347e-07
0.55	-0.1971281290215681	0.01832166313455458	0.776140449470625	1.028845922974309	-0.2249008168799111	-0.1137506179229129	-0.682951868692154	1.05631030162464	1.056310301624753	-0.07019588322003455	0.1745230533437274	0.321879658081673	0.1465051690807846	-0.425570291869181	-0.1763032223171878	-0.5302863319561643	1.893345801096513	-0.02216231125907825	0.1467261035051263	-0.6383892565448381	1.859018846485226	1.859018846485196	-0.4396898199022493	3.751594147662573e-05	0.4943024669502811	0.1697994488064458	-0.251543941138253	0.03255106112052029	0.01525764769459173	-0.2896764270288548	-0.02443059445169097	-0.003613256680796906	0.2818210143179489	-4.039409934362705	-52.2423026018761	-10.89356893169121	2.360936769164593	-2.322411566813244	-665.6691923362694	50.25519904417236	0.5948722983014394	0.6351613768393636	-0.0807276336308536	-2.102100325898803	-0.2339720358625371	-0.5749813389713111	2.042405417325285	-2.13212599267367	-2.132125992671798	0.6235592441327058	0.01218631568395357	-0.8329357174502281	-0.5450010494115657	-6.118206146454074e-08	4.303868925469222e-08	1.297249014620094e-06	1.787877644696178e-07	-1.66563877739069e-07	-1.006292992462473e-07	9.644294785976796e-07
0.5600000000000001	-0.201353508585091	0.01659041277205449	0.7708347683939824	1.047671922016133	-0.2251338288106797	-0.1123107258245664	-0.6892330134633646	1.074791634754769	1.074791634754843	-0.0745604828338335	0.1745231220194733	0.3267804000788616	0.1481758997004131	-0.419439632462055	-0.1699437718975345	-0.5307265361982805	1.871605530138573	-0.02443253440291588	0.1413294217059926	-0.6177886232833343	1.837009704928637	1.83700970492862	-0.4331281587841356	-4.099957517361081e-05	0.4857720722256529	0.1643043214144824	-0.2583603198369985	0.03360483971001566	0.01540269695815842	-0.2943931939106035	-0.02589947718363803	-0.003416672139654097	0.2878893666456636	-3.40570392859268	-53.07405409902212	-11.13231845781679	2.602882173454372	-2.131404429924513	-670.9570410967809	50.35186719875635	0.6296479906676185	0.6366509965800077	-0.007565172905945998	-2.243346073480589	-0.2155278851694268	-0.4919716252485967	2.080056819534177	-2.26709560085928	-2.267095600859263	0.6904643359780451	-0.04287535694171164	-0.8710051745345706	-0.5462463345905676	-4.451699908163175e-08	7.334669136248589e-08	1.350756323567548e-06	4.181133984249147e-07	-1.914003030878548e-07	-7.459803774454251e-08	1.047228662234566e-06
0.5700000000000001	-0.2055157119700906	0.0149228118088396	0.7655283610154672	1.066273301724524	-0.2253890313241659	-0.1109237043600156	-0.6953066019634832	1.093045854246372	1.093045854246405	-0.07885788829212599	0.174522181544342	0.3315938552280937	0.1497909818719373	-0.4129371996178242	-0.1635756534381063	-0.530431807385917	1.848429588996308	-0.02658827772393187	0.1360916946432683	-0.5968863152039952	1.813608930934347	1.813608930934338	-0.4263227196218748	-0.0001474324533814369	0.4768642990002304	0.1586978084947711	-0.2649756238016775	0.03450808708703906	0.01549128322381813	-0.2992223555666702	-0.02724418152766471	-0.003217143805373576	0.29375723897051	-2.830541632772157	-53.86153324572458	-11.35744113043268	2.837403116915974	-1.952974029104585	-676.1729683449158	50.48677109607886	0.6701289666679173	0.6369662768329984	0.06644975147166535	-2.390828708183006	-0.2125047057033005	-0.5371987314827112	2.101732032627063	-2.41035064928442	-2.410350649283408	0.6802853594205417	0.005582223182751858	-0.9089032725958714	-0.569717251970288	-3.138701389882907e-08	9.299966252877893e-08	1.348464695829818e-06	5.601045813725742e-07	-2.036852200210245e-07	-5.632958263726787e-08	1.084831477835493e-06
